<?xml version="1.0" encoding="UTF-8"?>
<svg xmlns="http://www.w3.org/2000/svg" xmlns:xlink="http://www.w3.org/1999/xlink" width="20" height="20" viewBox="0 0 20 20">
<defs>
<g>
<g id="glyph-0-0">
<path d="M 3.859375 0 L 2.484375 -4.015625 L 1.5625 -4.015625 L 0.140625 0 L 0.984375 0 L 1.25 -0.8125 L 2.75 -0.8125 L 3.015625 0 Z M 2.53125 -1.5 L 1.484375 -1.5 L 2 -3.0625 Z M 2.53125 -1.5 "/>
</g>
</g>
</defs>
<path fill="none" stroke-width="1.3" stroke-linecap="round" stroke-linejoin="round" stroke="rgb(11.764526%, 43.528748%, 85.096741%)" stroke-opacity="1" stroke-miterlimit="10" d="M 9 4 L 9 16 C 3 16 2 13 2 10 C 2 7 3 4 9 4 Z M 9 4 " transform="matrix(1, 0, 0, -1, 0, 20)"/>
<path fill="none" stroke-width="1.3" stroke-linecap="round" stroke-linejoin="round" stroke="rgb(11.764526%, 43.528748%, 85.096741%)" stroke-opacity="1" stroke-miterlimit="10" d="M 11 5.5 L 18 5.5 " transform="matrix(1, 0, 0, -1, 0, 20)"/>
<path fill="none" stroke-width="1.3" stroke-linecap="round" stroke-linejoin="round" stroke="rgb(11.764526%, 43.528748%, 85.096741%)" stroke-opacity="1" stroke-miterlimit="10" d="M 11 8.5 L 18 8.5 " transform="matrix(1, 0, 0, -1, 0, 20)"/>
<path fill="none" stroke-width="1.3" stroke-linecap="round" stroke-linejoin="round" stroke="rgb(11.764526%, 43.528748%, 85.096741%)" stroke-opacity="1" stroke-miterlimit="10" d="M 11 11.5 L 18 11.5 " transform="matrix(1, 0, 0, -1, 0, 20)"/>
<path fill="none" stroke-width="1.3" stroke-linecap="round" stroke-linejoin="round" stroke="rgb(11.764526%, 43.528748%, 85.096741%)" stroke-opacity="1" stroke-miterlimit="10" d="M 11 14.5 L 18 14.5 " transform="matrix(1, 0, 0, -1, 0, 20)"/>
<g fill="rgb(11.764526%, 43.528748%, 85.096741%)" fill-opacity="1">
<use xlink:href="#glyph-0-0" x="3.8145" y="12.2"/>
</g>
</svg>
