<?xml version="1.0" encoding="UTF-8"?>
<svg xmlns="http://www.w3.org/2000/svg" xmlns:xlink="http://www.w3.org/1999/xlink" width="20" height="20" viewBox="0 0 20 20">
<path fill="none" stroke-width="1.3" stroke-linecap="round" stroke-linejoin="round" stroke="rgb(90.979004%, 60.783386%, 0%)" stroke-opacity="1" stroke-miterlimit="10" d="M 1.5 3 L 18.5 11 " transform="matrix(1, 0, 0, -1, 0, 20)"/>
<path fill="none" stroke-width="1.3" stroke-linecap="round" stroke-linejoin="round" stroke="rgb(90.979004%, 60.783386%, 0%)" stroke-opacity="1" stroke-miterlimit="10" d="M 7.199219 8 L 12.800781 8 C 13.464844 8 14 8.535156 14 9.199219 L 14 11.800781 C 14 12.464844 13.464844 13 12.800781 13 L 7.199219 13 C 6.535156 13 6 12.464844 6 11.800781 L 6 9.199219 C 6 8.535156 6.535156 8 7.199219 8 Z M 7.199219 8 " transform="matrix(1, 0, 0, -1, 0, 20)"/>
<path fill-rule="evenodd" fill="rgb(90.979004%, 60.783386%, 0%)" fill-opacity="1" stroke-width="1.3" stroke-linecap="round" stroke-linejoin="round" stroke="rgb(90.979004%, 60.783386%, 0%)" stroke-opacity="1" stroke-miterlimit="10" d="M 9.300781 7.601562 C 9.300781 8.316406 8.71875 8.898438 8 8.898438 C 7.28125 8.898438 6.699219 8.316406 6.699219 7.601562 C 6.699219 6.882812 7.28125 6.300781 8 6.300781 C 8.71875 6.300781 9.300781 6.882812 9.300781 7.601562 " transform="matrix(1, 0, 0, -1, 0, 20)"/>
<path fill-rule="evenodd" fill="rgb(90.979004%, 60.783386%, 0%)" fill-opacity="1" stroke-width="1.3" stroke-linecap="round" stroke-linejoin="round" stroke="rgb(90.979004%, 60.783386%, 0%)" stroke-opacity="1" stroke-miterlimit="10" d="M 13.800781 9.699219 C 13.800781 10.417969 13.21875 11 12.5 11 C 11.78125 11 11.199219 10.417969 11.199219 9.699219 C 11.199219 8.980469 11.78125 8.398438 12.5 8.398438 C 13.21875 8.398438 13.800781 8.980469 13.800781 9.699219 " transform="matrix(1, 0, 0, -1, 0, 20)"/>
<path fill="none" stroke-width="1.3" stroke-linecap="round" stroke-linejoin="round" stroke="rgb(90.979004%, 60.783386%, 0%)" stroke-opacity="1" stroke-miterlimit="10" d="M 15 17 L 15 13 " transform="matrix(1, 0, 0, -1, 0, 20)"/>
<path fill="none" stroke-width="1.3" stroke-linecap="round" stroke-linejoin="round" stroke="rgb(90.979004%, 60.783386%, 0%)" stroke-opacity="1" stroke-miterlimit="10" d="M 15 13 L 13.5 14.5 " transform="matrix(1, 0, 0, -1, 0, 20)"/>
<path fill="none" stroke-width="1.3" stroke-linecap="round" stroke-linejoin="round" stroke="rgb(90.979004%, 60.783386%, 0%)" stroke-opacity="1" stroke-miterlimit="10" d="M 15 13 L 16.5 14.5 " transform="matrix(1, 0, 0, -1, 0, 20)"/>
</svg>
