<?xml version="1.0" encoding="UTF-8"?>
<svg xmlns="http://www.w3.org/2000/svg" xmlns:xlink="http://www.w3.org/1999/xlink" width="20" height="20" viewBox="0 0 20 20">
<path fill="none" stroke-width="1.3" stroke-linecap="round" stroke-linejoin="round" stroke="rgb(90.979004%, 60.783386%, 0%)" stroke-opacity="1" stroke-miterlimit="10" d="M 2.5 2 L 5.5 18 " transform="matrix(1, 0, 0, -1, 0, 20)"/>
<path fill="none" stroke-width="1.3" stroke-linecap="round" stroke-linejoin="round" stroke="rgb(90.979004%, 60.783386%, 0%)" stroke-opacity="1" stroke-miterlimit="10" d="M 17.5 2 L 14.5 18 " transform="matrix(1, 0, 0, -1, 0, 20)"/>
<path fill="none" stroke-width="1.3" stroke-linecap="round" stroke-linejoin="round" stroke="rgb(90.979004%, 60.783386%, 0%)" stroke-opacity="1" stroke-miterlimit="10" d="M 9 5 L 11 5 C 11.828125 5 12.5 5.671875 12.5 6.5 L 12.5 11.5 C 12.5 12.328125 11.828125 13 11 13 L 9 13 C 8.171875 13 7.5 12.328125 7.5 11.5 L 7.5 6.5 C 7.5 5.671875 8.171875 5 9 5 Z M 9 5 " transform="matrix(1, 0, 0, -1, 0, 20)"/>
</svg>
