<?xml version="1.0" encoding="UTF-8"?>
<svg xmlns="http://www.w3.org/2000/svg" xmlns:xlink="http://www.w3.org/1999/xlink" width="20" height="20" viewBox="0 0 20 20">
<defs>
<g>
<g id="glyph-0-0">
<path d="M 1.328125 -2.84375 L 1.328125 -4 L 0.5 -4 L 0.5 -2.84375 L 0.734375 -1.140625 L 1.09375 -1.140625 Z M 1.328125 0 L 1.328125 -0.796875 L 0.5 -0.796875 L 0.5 0 Z M 1.328125 0 "/>
</g>
</g>
</defs>
<path fill="none" stroke-width="1.3" stroke-linecap="round" stroke-linejoin="round" stroke="rgb(90.979004%, 60.783386%, 0%)" stroke-opacity="1" stroke-miterlimit="10" d="M 3 8 L 3 13 L 6 18 L 14 18 L 17 13 L 17 8 Z M 3 8 " transform="matrix(1, 0, 0, -1, 0, 20)"/>
<path fill="none" stroke-width="1.3" stroke-linecap="round" stroke-linejoin="round" stroke="rgb(90.979004%, 60.783386%, 0%)" stroke-opacity="1" stroke-miterlimit="10" d="M 3 13 L 17 13 " transform="matrix(1, 0, 0, -1, 0, 20)"/>
<path fill-rule="evenodd" fill="rgb(90.979004%, 60.783386%, 0%)" fill-opacity="1" stroke-width="1.3" stroke-linecap="round" stroke-linejoin="round" stroke="rgb(90.979004%, 60.783386%, 0%)" stroke-opacity="1" stroke-miterlimit="10" d="M 3.5 6 L 6 6 L 6 8 L 3.5 8 Z M 3.5 6 " transform="matrix(1, 0, 0, -1, 0, 20)"/>
<path fill-rule="evenodd" fill="rgb(90.979004%, 60.783386%, 0%)" fill-opacity="1" stroke-width="1.3" stroke-linecap="round" stroke-linejoin="round" stroke="rgb(90.979004%, 60.783386%, 0%)" stroke-opacity="1" stroke-miterlimit="10" d="M 14 6 L 16.5 6 L 16.5 8 L 14 8 Z M 14 6 " transform="matrix(1, 0, 0, -1, 0, 20)"/>
<g fill="rgb(90.979004%, 60.783386%, 0%)" fill-opacity="1">
<use xlink:href="#glyph-0-0" x="9.08425" y="11.3"/>
</g>
</svg>
