<?xml version="1.0" encoding="UTF-8"?>
<svg xmlns="http://www.w3.org/2000/svg" xmlns:xlink="http://www.w3.org/1999/xlink" width="20" height="20" viewBox="0 0 20 20">
<path fill="none" stroke-width="1.3" stroke-linecap="round" stroke-linejoin="round" stroke="rgb(90.979004%, 60.783386%, 0%)" stroke-opacity="1" stroke-miterlimit="10" d="M 10 11 L 16 11 C 16 14.3125 13.3125 17 10 17 C 6.6875 17 4 14.3125 4 11 Z M 10 11 " transform="matrix(1, 0, 0, -1, 0, 20)"/>
<path fill-rule="evenodd" fill="rgb(90.979004%, 60.783386%, 0%)" fill-opacity="1" stroke-width="1.3" stroke-linecap="round" stroke-linejoin="round" stroke="rgb(90.979004%, 60.783386%, 0%)" stroke-opacity="1" stroke-miterlimit="10" d="M 18.898438 8 C 18.898438 8.882812 18.183594 9.601562 17.300781 9.601562 C 16.417969 9.601562 15.699219 8.882812 15.699219 8 C 15.699219 7.117188 16.417969 6.398438 17.300781 6.398438 C 18.183594 6.398438 18.898438 7.117188 18.898438 8 " transform="matrix(1, 0, 0, -1, 0, 20)"/>
<path fill="none" stroke-width="1.3" stroke-linecap="round" stroke-linejoin="round" stroke="rgb(90.979004%, 60.783386%, 0%)" stroke-opacity="1" stroke-miterlimit="10" d="M 6 11 L 6 7 " transform="matrix(1, 0, 0, -1, 0, 20)"/>
<path fill="none" stroke-width="1.3" stroke-linecap="round" stroke-linejoin="round" stroke="rgb(90.979004%, 60.783386%, 0%)" stroke-opacity="1" stroke-miterlimit="10" d="M 14 11 L 14 7 " transform="matrix(1, 0, 0, -1, 0, 20)"/>
<path fill="none" stroke-width="1.3" stroke-linecap="round" stroke-linejoin="round" stroke="rgb(90.979004%, 60.783386%, 0%)" stroke-opacity="1" stroke-miterlimit="10" d="M 4 11 L 16 11 " transform="matrix(1, 0, 0, -1, 0, 20)"/>
</svg>
