<?xml version="1.0" encoding="utf-8"?>
<!DOCTYPE svg
  PUBLIC '-//W3C//DTD SVG 1.0//EN'
  'http://www.w3.org/TR/2001/REC-SVG-20010904/DTD/svg10.dtd'>
<svg width="480" height="250" preserveAspectRatio="xMinYMin meet" viewBox="0 0 480 250" xmlns="http://www.w3.org/2000/svg" version="1.0" fill-rule="evenodd" xmlns:xlink="http://www.w3.org/1999/xlink">
	<title>...</title>
	<desc>...</desc>
	<clipPath id="clip">
		<rect x="0" y="0" width="480" height="250"/>
	</clipPath>
	<g id="group" transform="scale(1,-1) translate(0,-250)" style="clip-path: url(#clip)">
		<g transform="">
			<rect x="0" y="0" width="480" height="250" style="stroke: rgb(0%,0%,0%); stroke-linecap: butt; stroke-width: 0; fill: rgb(100%,100%,100%); fill-rule: evenodd;"/>
			<g transform=" matrix(1,0,0,1,0,70)">
				<polygon points="0 0, 0 30, 150 30, 320 110, 480 110, 480 0" style="stroke: rgb(54%,58%,63%); stroke-linecap: butt; stroke-width: 1; fill: rgb(78%,81%,83%); fill-rule: evenodd;"/>
				<path d="M 150,30 L 320,110 Z" style="stroke: rgb(11%,15%,20%); stroke-linecap: butt; stroke-width: 2;"/>
				<text x="8" y="10" style="font-family: Helvetica; font-size: 8px;fill: rgb(33%,37%,42%); stroke:none;" transform="translate(0,20) scale(1,-1)">Planta inferior</text>
				<text x="392.856" y="94" style="font-family: Helvetica; font-size: 8px;fill: rgb(33%,37%,42%); stroke:none;" transform="translate(0,188) scale(1,-1)">Planta superior o calle</text>
				<g transform=" matrix(1,0,0,1,90,30)">
					<g transform="">
						<g transform="">
							<rect x="-26" y="6" width="52" height="13" rx="4" ry="4" style="stroke: rgb(11%,15%,20%); stroke-linecap: butt; stroke-width: 1; fill: rgb(90%,60%,0%); fill-rule: evenodd;"/>
							<polygon points="-16 19, -9 28, 12 28, 20 19" style="stroke: rgb(11%,15%,20%); stroke-linecap: butt; stroke-width: 1; fill: rgb(90%,60%,0%); fill-rule: evenodd;"/>
							<polygon points="-12 20, -7 26, 2 26, 2 20" style="stroke: rgb(0%,0%,0%); stroke-linecap: butt; stroke-width: 0; fill: rgb(86%,92%,96%); fill-rule: evenodd;"/>
							<polygon points="5 20, 5 26, 11 26, 16 20" style="stroke: rgb(0%,0%,0%); stroke-linecap: butt; stroke-width: 0; fill: rgb(86%,92%,96%); fill-rule: evenodd;"/>
							<circle cx="-15" cy="6" r="6" style="stroke: rgb(0%,0%,0%); stroke-linecap: butt; stroke-width: 0; fill: rgb(11%,15%,20%); fill-rule: evenodd;"/>
							<circle cx="15" cy="6" r="6" style="stroke: rgb(0%,0%,0%); stroke-linecap: butt; stroke-width: 0; fill: rgb(11%,15%,20%); fill-rule: evenodd;"/>
							<circle cx="-15" cy="6" r="2.2" style="stroke: rgb(0%,0%,0%); stroke-linecap: butt; stroke-width: 0; fill: rgb(78%,81%,83%); fill-rule: evenodd;"/>
							<circle cx="15" cy="6" r="2.2" style="stroke: rgb(0%,0%,0%); stroke-linecap: butt; stroke-width: 0; fill: rgb(78%,81%,83%); fill-rule: evenodd;"/>
						</g>
					</g>
				</g>
				<g transform=" matrix(1,0,0,1,235,67)">
					<g transform=" matrix(0.904827,0.425779,-0.425779,0.904827,0,0)">
						<g transform="">
							<rect x="-26" y="6" width="52" height="13" rx="4" ry="4" style="stroke: rgb(11%,15%,20%); stroke-linecap: butt; stroke-width: 1; fill: rgb(90%,60%,0%); fill-rule: evenodd;"/>
							<polygon points="-16 19, -9 28, 12 28, 20 19" style="stroke: rgb(11%,15%,20%); stroke-linecap: butt; stroke-width: 1; fill: rgb(90%,60%,0%); fill-rule: evenodd;"/>
							<polygon points="-12 20, -7 26, 2 26, 2 20" style="stroke: rgb(0%,0%,0%); stroke-linecap: butt; stroke-width: 0; fill: rgb(86%,92%,96%); fill-rule: evenodd;"/>
							<polygon points="5 20, 5 26, 11 26, 16 20" style="stroke: rgb(0%,0%,0%); stroke-linecap: butt; stroke-width: 0; fill: rgb(86%,92%,96%); fill-rule: evenodd;"/>
							<circle cx="-15" cy="6" r="6" style="stroke: rgb(0%,0%,0%); stroke-linecap: butt; stroke-width: 0; fill: rgb(11%,15%,20%); fill-rule: evenodd;"/>
							<circle cx="15" cy="6" r="6" style="stroke: rgb(0%,0%,0%); stroke-linecap: butt; stroke-width: 0; fill: rgb(11%,15%,20%); fill-rule: evenodd;"/>
							<circle cx="-15" cy="6" r="2.2" style="stroke: rgb(0%,0%,0%); stroke-linecap: butt; stroke-width: 0; fill: rgb(78%,81%,83%); fill-rule: evenodd;"/>
							<circle cx="15" cy="6" r="2.2" style="stroke: rgb(0%,0%,0%); stroke-linecap: butt; stroke-width: 0; fill: rgb(78%,81%,83%); fill-rule: evenodd;"/>
						</g>
					</g>
				</g>
				<g transform=" matrix(1,0,0,1,390,110)">
					<g transform="">
						<g transform="">
							<rect x="-26" y="6" width="52" height="13" rx="4" ry="4" style="stroke: rgb(11%,15%,20%); stroke-linecap: butt; stroke-width: 1; fill: rgb(90%,60%,0%); fill-rule: evenodd;"/>
							<polygon points="-16 19, -9 28, 12 28, 20 19" style="stroke: rgb(11%,15%,20%); stroke-linecap: butt; stroke-width: 1; fill: rgb(90%,60%,0%); fill-rule: evenodd;"/>
							<polygon points="-12 20, -7 26, 2 26, 2 20" style="stroke: rgb(0%,0%,0%); stroke-linecap: butt; stroke-width: 0; fill: rgb(86%,92%,96%); fill-rule: evenodd;"/>
							<polygon points="5 20, 5 26, 11 26, 16 20" style="stroke: rgb(0%,0%,0%); stroke-linecap: butt; stroke-width: 0; fill: rgb(86%,92%,96%); fill-rule: evenodd;"/>
							<circle cx="-15" cy="6" r="6" style="stroke: rgb(0%,0%,0%); stroke-linecap: butt; stroke-width: 0; fill: rgb(11%,15%,20%); fill-rule: evenodd;"/>
							<circle cx="15" cy="6" r="6" style="stroke: rgb(0%,0%,0%); stroke-linecap: butt; stroke-width: 0; fill: rgb(11%,15%,20%); fill-rule: evenodd;"/>
							<circle cx="-15" cy="6" r="2.2" style="stroke: rgb(0%,0%,0%); stroke-linecap: butt; stroke-width: 0; fill: rgb(78%,81%,83%); fill-rule: evenodd;"/>
							<circle cx="15" cy="6" r="2.2" style="stroke: rgb(0%,0%,0%); stroke-linecap: butt; stroke-width: 0; fill: rgb(78%,81%,83%); fill-rule: evenodd;"/>
						</g>
					</g>
				</g>
				<path d="M 122,50 L 200,75 Z" style="stroke: rgb(18%,61%,27%); stroke-linecap: butt; stroke-width: 1.6; stroke-dasharray: 4, 3;"/>
				<polygon points="200 75, 191 74, 196 68" style="stroke: rgb(0%,0%,0%); stroke-linecap: butt; stroke-width: 0; fill: rgb(18%,61%,27%); fill-rule: evenodd;"/>
				<g transform="">
					<circle cx="90" cy="75" r="9" style="stroke: rgb(100%,100%,100%); stroke-linecap: butt; stroke-width: 1.5; fill: rgb(18%,61%,27%); fill-rule: evenodd;"/>
					<text x="87.22" y="71.4" style="font-family: Helvetica-Bold; font-size: 10px;fill: rgb(100%,100%,100%); stroke:none;" transform="translate(0,142) scale(1,-1)">1</text>
				</g>
				<g transform="">
					<circle cx="222" cy="117.0" r="9" style="stroke: rgb(100%,100%,100%); stroke-linecap: butt; stroke-width: 1.5; fill: rgb(18%,61%,27%); fill-rule: evenodd;"/>
					<text x="219.22" y="113.4" style="font-family: Helvetica-Bold; font-size: 10px;fill: rgb(100%,100%,100%); stroke:none;" transform="translate(0,226) scale(1,-1)">2</text>
				</g>
				<g transform="">
					<circle cx="322" cy="138" r="9" style="stroke: rgb(100%,100%,100%); stroke-linecap: butt; stroke-width: 1.5; fill: rgb(90%,60%,0%); fill-rule: evenodd;"/>
					<text x="319.22" y="134.4" style="font-family: Helvetica-Bold; font-size: 10px;fill: rgb(100%,100%,100%); stroke:none;" transform="translate(0,268) scale(1,-1)">3</text>
				</g>
				<g transform="">
					<circle cx="390" cy="155" r="9" style="stroke: rgb(100%,100%,100%); stroke-linecap: butt; stroke-width: 1.5; fill: rgb(18%,61%,27%); fill-rule: evenodd;"/>
					<text x="387.22" y="151.4" style="font-family: Helvetica-Bold; font-size: 10px;fill: rgb(100%,100%,100%); stroke:none;" transform="translate(0,302) scale(1,-1)">4</text>
				</g>
			</g>
			<path d="M 0,62 L 480,62 Z" style="stroke: rgb(86%,88%,89%); stroke-linecap: butt; stroke-width: 1;"/>
			<text x="6" y="46.0" style="font-family: Helvetica; font-size: 7.6px;fill: rgb(10%,12%,14%); stroke:none;" transform="translate(0,92) scale(1,-1)">1. Parado al pie, en D,</text>
			<text x="6" y="36.4" style="font-family: Helvetica; font-size: 7.6px;fill: rgb(10%,12%,14%); stroke:none;" transform="translate(0,72) scale(1,-1)">Auto Hold sujetando</text>
			<text x="126" y="46.0" style="font-family: Helvetica; font-size: 7.6px;fill: rgb(10%,12%,14%); stroke:none;" transform="translate(0,92) scale(1,-1)">2. Pie suave y</text>
			<text x="126" y="36.4" style="font-family: Helvetica; font-size: 7.6px;fill: rgb(10%,12%,14%); stroke:none;" transform="translate(0,72) scale(1,-1)">constante todo el tramo</text>
			<text x="246" y="46.0" style="font-family: Helvetica; font-size: 7.6px;fill: rgb(10%,12%,14%); stroke:none;" transform="translate(0,92) scale(1,-1)">3. Rasante: despacio,</text>
			<text x="246" y="36.4" style="font-family: Helvetica; font-size: 7.6px;fill: rgb(10%,12%,14%); stroke:none;" transform="translate(0,72) scale(1,-1)">mira la cámara frontal</text>
			<text x="366" y="46.0" style="font-family: Helvetica; font-size: 7.6px;fill: rgb(10%,12%,14%); stroke:none;" transform="translate(0,92) scale(1,-1)">4. Arriba: para antes</text>
			<text x="366" y="36.4" style="font-family: Helvetica; font-size: 7.6px;fill: rgb(10%,12%,14%); stroke:none;" transform="translate(0,72) scale(1,-1)">de la acera o la calle</text>
		</g>
	</g>
</svg>
